<svg xmlns="http://www.w3.org/2000/svg" width="18" height="25" viewBox="0 0 18 25">
    <g fill="none" fill-rule="evenodd">
        <g fill="#AEAEAE" fill-rule="nonzero">
            <g>
                <g>
                    <path d="M15.75 3H12c0-1.655-1.345-3-3-3S6 1.345 6 3H2.25C1.008 3 0 4.008 0 5.25v16.5C0 22.992 1.008 24 2.25 24h13.5c1.242 0 2.25-1.008 2.25-2.25V5.25C18 4.008 16.992 3 15.75 3zM4.5 19.875c-.623 0-1.125-.502-1.125-1.125s.502-1.125 1.125-1.125 1.125.502 1.125 1.125-.502 1.125-1.125 1.125zm0-4.5c-.623 0-1.125-.502-1.125-1.125s.502-1.125 1.125-1.125 1.125.502 1.125 1.125-.502 1.125-1.125 1.125zm0-4.5c-.623 0-1.125-.502-1.125-1.125S3.877 8.625 4.5 8.625s1.125.502 1.125 1.125-.502 1.125-1.125 1.125zm4.5-9c.623 0 1.125.502 1.125 1.125S9.623 4.125 9 4.125 7.875 3.623 7.875 3 8.377 1.875 9 1.875zm6 17.25c0 .206-.169.375-.375.375h-6.75c-.206 0-.375-.169-.375-.375v-.75c0-.206.169-.375.375-.375h6.75c.206 0 .375.169.375.375v.75zm0-4.5c0 .206-.169.375-.375.375h-6.75c-.206 0-.375-.169-.375-.375v-.75c0-.206.169-.375.375-.375h6.75c.206 0 .375.169.375.375v.75zm0-4.5c0 .206-.169.375-.375.375h-6.75c-.206 0-.375-.169-.375-.375v-.75c0-.206.169-.375.375-.375h6.75c.206 0 .375.169.375.375v.75z" transform="translate(-960 -142) translate(937 70) translate(23 72)"/>
                </g>
            </g>
        </g>
    </g>
</svg>
