<svg width="20" height="20" viewBox="0 0 20 20" fill="none" xmlns="http://www.w3.org/2000/svg">
<path d="M17.8571 0H2.14286C0.95939 0 0 0.95939 0 2.14286V17.8571C0 19.0406 0.95939 20 2.14286 20H8.27009V13.2004H5.45759V10H8.27009V7.56071C8.27009 4.78616 9.92188 3.25357 12.4518 3.25357C13.6634 3.25357 14.9304 3.46964 14.9304 3.46964V6.19286H13.5344C12.1589 6.19286 11.7299 7.04643 11.7299 7.92188V10H14.8004L14.3094 13.2004H11.7299V20H17.8571C19.0406 20 20 19.0406 20 17.8571V2.14286C20 0.95939 19.0406 0 17.8571 0V0Z" fill="black"/>
</svg>
