<svg xmlns="http://www.w3.org/2000/svg" width="18" height="25" viewBox="0 0 18 25">
    <g fill="none" fill-rule="evenodd">
        <g fill="#AEAEAE" fill-rule="nonzero">
            <g>
                <g>
                    <path d="M8.075 23.516C1.265 13.642 0 12.629 0 9c0-4.97 4.03-9 9-9s9 4.03 9 9c0 3.629-1.264 4.642-8.075 14.516-.447.645-1.403.645-1.85 0zM9 12.75c2.071 0 3.75-1.679 3.75-3.75 0-2.071-1.679-3.75-3.75-3.75-2.071 0-3.75 1.679-3.75 3.75 0 2.071 1.679 3.75 3.75 3.75z" transform="translate(-960 -200) translate(937 70) translate(23 130)"/>
                </g>
            </g>
        </g>
    </g>
</svg>
