<?xml version="1.0" encoding="UTF-8"?>
<svg width="20px" height="20px" viewBox="0 0 20 20" version="1.1" xmlns="http://www.w3.org/2000/svg" xmlns:xlink="http://www.w3.org/1999/xlink">
    <title>ic_search2</title>
    <g id="Desktop" stroke="none" stroke-width="1" fill="none" fill-rule="evenodd" opacity="0.247977121">
        <g id="Desktop_2.2_Product-Detail" transform="translate(-1104.000000, -99.000000)" fill="#000000">
            <g id="Group-7" transform="translate(750.000000, 70.000000)">
                <g id="Icon/Search" transform="translate(354.000000, 29.000000)">
                    <path d="M19.6,18.3142567 L18.3142567,19.6 L13.0351925,14.3209358 C11.7060302,15.372328 10.0263154,16 8.2,16 C3.89217895,16 0.4,12.507821 0.4,8.2 C0.4,3.89217895 3.89217895,0.4 8.2,0.4 C12.507821,0.4 16,3.89217895 16,8.2 C16,10.0263154 15.372328,11.7060302 14.3209358,13.0351925 L19.6,18.3142567 Z M8.21831558,14.2183156 C11.5320241,14.2183156 14.2183156,11.5320241 14.2183156,8.21831558 C14.2183156,4.90460708 11.5320241,2.21831558 8.21831558,2.21831558 C4.90460708,2.21831558 2.21831558,4.90460708 2.21831558,8.21831558 C2.21831558,11.5320241 4.90460708,14.2183156 8.21831558,14.2183156 Z" id="ic_search2"></path>
                </g>
            </g>
        </g>
    </g>
</svg>