<svg xmlns="http://www.w3.org/2000/svg" width="22" height="17" viewBox="0 0 22 17">
    <g fill="none" fill-rule="evenodd">
        <g fill="#AEAEAE" fill-rule="nonzero">
            <g>
                <g>
                    <path d="M21.694 9.167L14.361 16.5c-.655.655-1.79.196-1.79-.742v-4.19H6.635c-.58 0-1.048-.468-1.048-1.048V6.33c0-.581.467-1.048 1.048-1.048h5.936v-4.19c0-.935 1.131-1.398 1.79-.743l7.333 7.334c.406.41.406 1.073 0 1.484zM8.381 16.282v-1.746c0-.288-.236-.524-.524-.524H4.19c-.772 0-1.396-.624-1.396-1.397v-8.38c0-.773.624-1.398 1.396-1.398h3.667c.288 0 .524-.235.524-.524V.567c0-.288-.236-.523-.524-.523H4.19C1.877.044 0 1.92 0 4.234v8.381c0 2.314 1.877 4.19 4.19 4.19h3.667c.288 0 .524-.235.524-.523z" transform="translate(-958 -261) translate(937 70) translate(21 191)"/>
                </g>
            </g>
        </g>
    </g>
</svg>
