<svg xmlns="http://www.w3.org/2000/svg" width="22" height="22" viewBox="0 0 22 22">
    <g fill="none" fill-rule="evenodd">
        <g fill="#AEAEAE" fill-rule="nonzero">
            <g>
                <g>
                    <path d="M11 0C4.923 0 0 4.923 0 11s4.923 11 11 11 11-4.923 11-11S17.077 0 11 0zm0 4.258c2.156 0 3.903 1.748 3.903 3.903 0 2.156-1.747 3.904-3.903 3.904-2.156 0-3.903-1.748-3.903-3.904 0-2.155 1.747-3.903 3.903-3.903zm0 15.258c-2.604 0-4.937-1.18-6.498-3.025.834-1.57 2.466-2.652 4.369-2.652.106 0 .213.017.315.048.576.187 1.18.307 1.814.307.634 0 1.242-.12 1.814-.307.102-.03.209-.048.315-.048 1.903 0 3.535 1.082 4.369 2.652-1.561 1.845-3.894 3.025-6.498 3.025z" transform="translate(-958 -88) translate(937 70) translate(21 18)"/>
                </g>
            </g>
        </g>
    </g>
</svg>
